<?xml version="1.0" encoding="utf-8"?>
<!-- Generator: Adobe Illustrator 16.0.0, SVG Export Plug-In . SVG Version: 6.00 Build 0)  -->
<!DOCTYPE svg PUBLIC "-//W3C//DTD SVG 1.1//EN" "http://www.w3.org/Graphics/SVG/1.1/DTD/svg11.dtd">
<svg version="1.1" id="Capa_1" xmlns="http://www.w3.org/2000/svg" xmlns:xlink="http://www.w3.org/1999/xlink" x="0px" y="0px"
	 width="79.536px" height="79.537px" viewBox="0 0 79.536 79.537" enable-background="new 0 0 79.536 79.537" xml:space="preserve">
<g>
	<path fill="#E1DFE5" d="M54.893,34.136v4.365c0,7.451-5.447,13.623-12.561,14.851v4.387h3.855v5.132H33.354v-5.132h3.855v-4.387
		c-7.117-1.222-12.552-7.398-12.552-14.851v-4.365c0-1.419,1.149-2.563,2.565-2.563c1.417,0,2.566,1.149,2.566,2.563v4.365
		c0,5.504,4.477,9.978,9.981,9.978c5.512,0,9.991-4.474,9.991-9.978v-4.365c0-1.419,1.15-2.563,2.564-2.563
		C53.743,31.573,54.893,32.717,54.893,34.136z M39.766,11.886c-4.249,0-7.695,3.438-7.695,7.705v17.658
		c0,4.246,3.446,7.699,7.695,7.699c4.258,0,7.702-3.453,7.702-7.699V19.591C47.467,15.324,44.024,11.886,39.766,11.886z"/>
</g>
</svg>
